<?xml version="1.0" encoding="iso-8859-1"?>
<!-- Generator: Adobe Illustrator 19.0.0, SVG Export Plug-In . SVG Version: 6.00 Build 0)  -->
<svg version="1.1" id="Capa_1" xmlns="http://www.w3.org/2000/svg" xmlns:xlink="http://www.w3.org/1999/xlink" x="0px" y="0px"
	 viewBox="0 0 512 512" style="enable-background:new 0 0 512 512;" xml:space="preserve">
<g>
	<g>
		<g>
			<path d="M256.125,64c-105.865,0-192,86.125-192,192s86.135,192,192,192s192-86.125,192-192S361.99,64,256.125,64z
				 "/>
			<path d="M444.769,82.968c-4.081-4.444-11.196-4.452-15.464-0.187l-15.13,15.122c-4.048,4.046-4,10.448-0.149,14.682
				c36.875,40.556,55.312,91.99,55.31,143.424c-0.002,51.427-18.439,102.853-55.31,143.404c-3.851,4.235-3.899,10.636,0.149,14.682
				l15.13,15.122c4.268,4.266,11.383,4.257,15.465-0.187c44.823-48.805,67.233-110.925,67.23-173.044
				C511.997,193.877,489.587,131.767,444.769,82.968z"/>
			<path d="M42.664,255.995c0.001-51.429,18.438-102.857,55.31-143.409c3.851-4.235,3.899-10.636-0.149-14.682l-15.13-15.122
				c-4.268-4.266-11.383-4.257-15.465,0.187C22.409,131.772-0.001,193.889,0,256.006c0.001,62.113,22.412,124.225,67.23,173.026
				c4.081,4.444,11.197,4.453,15.465,0.187l15.13-15.123c4.048-4.046,4-10.447,0.149-14.682
				C61.1,358.859,42.663,307.427,42.664,255.995z"/>
		</g>
	</g>
</g>
<g>
</g>
<g>
</g>
<g>
</g>
<g>
</g>
<g>
</g>
<g>
</g>
<g>
</g>
<g>
</g>
<g>
</g>
<g>
</g>
<g>
</g>
<g>
</g>
<g>
</g>
<g>
</g>
<g>
</g>
</svg>
