<?xml version="1.0" encoding="iso-8859-1"?>
<!-- Generator: Adobe Illustrator 19.0.0, SVG Export Plug-In . SVG Version: 6.00 Build 0)  -->
<svg version="1.1" id="Capa_1" xmlns="http://www.w3.org/2000/svg" xmlns:xlink="http://www.w3.org/1999/xlink" x="0px" y="0px"
	 viewBox="0 0 469.333 469.333" style="enable-background:new 0 0 469.333 469.333;" xml:space="preserve">
<g>
	<g>
		<path d="M448,149.333H277.333v-96c0-3.979-2.229-7.646-5.771-9.479c-1.533-0.78-3.213-1.186-4.889-1.188
			c-2.172-0.002-4.339,0.665-6.173,1.958L4.5,225.958c-2.813,2-4.5,5.25-4.5,8.708s1.688,6.708,4.5,8.708l256,181.333
			c1.833,1.292,4,1.958,6.167,1.958c1.667,0,3.354-0.396,4.896-1.188c3.542-1.833,5.771-5.5,5.771-9.479v-96H448
			c11.771,0,21.333-9.563,21.333-21.333v-128C469.333,158.896,459.771,149.333,448,149.333z"/>
	</g>
</g>
<g>
</g>
<g>
</g>
<g>
</g>
<g>
</g>
<g>
</g>
<g>
</g>
<g>
</g>
<g>
</g>
<g>
</g>
<g>
</g>
<g>
</g>
<g>
</g>
<g>
</g>
<g>
</g>
<g>
</g>
</svg>
