<?xml version="1.0" encoding="UTF-8" standalone="no"?>
<svg
   xmlns="http://www.w3.org/2000/svg"
   id="svg8"
   version="1.1"
   viewBox="0 0 117.49191 32.697217"
   height="123.58003"
   width="444.0639">
  <defs
     id="defs2">
    <filter
       id="filter322"
       style="color-interpolation-filters:sRGB"
       height="1.5"
       y="-0.25">
      <feGaussianBlur
         id="feGaussianBlur312"
         result="result6"
         stdDeviation="5" />
      <feComposite
         id="feComposite314"
         in2="result6"
         operator="atop"
         in="SourceGraphic"
         result="result8" />
      <feComposite
         id="feComposite316"
         in="result8"
         in2="SourceAlpha"
         operator="over"
         result="result9" />
      <feColorMatrix
         id="feColorMatrix318"
         result="result10"
         values="1 0 0 0 0 0 1 0 0 0 0 0 1 0 0 0 0 0 1 0 " />
      <feBlend
         id="feBlend320"
         in2="result6"
         mode="normal"
         in="result10" />
    </filter>
  </defs>
  <g
     transform="translate(-54.848525,-18.551187)"
     id="layer1"
   >
    <g
       style="font-size:22.5778px;line-height:1.25;font-family:TESLA;-inkscape-font-specification:TESLA;fill:#333333;stroke-width:0.264583;filter:url(#filter322)"
       id="text12"
       transform="matrix(1.2390164,0,0,1.5447489,-24.809352,-11.421207)"
       aria-label="ONYX">
      <path
         id="path324"
         style="font-style:italic;font-size:22.5778px;fill:#333333;stroke-width:0.264583"
         d="m 72.193451,37.041668 1.697745,-8.466675 h 2.822225 l -1.124481,5.64445 h 11.288901 l 1.12448,-5.64445 h 2.822225 l -1.697745,8.466675 z m 5.071186,-11.2889 q -1.190627,0 -1.830037,-0.8158 -0.661459,-0.837848 -0.418924,-2.006426 h 16.933351 q -0.242535,1.190627 -1.234724,2.006426 -1.014237,0.8158 -2.160766,0.8158 z" />
      <path
         id="path326"
         style="font-style:italic;font-size:22.5778px;fill:#333333;stroke-width:0.264583"
         d="m 94.771251,37.041668 2.248961,-11.2889 -2.248961,-2.822226 h 4.233338 l 7.893411,9.877788 1.98438,-9.877788 h 2.82222 l -2.82222,14.111126 h -2.82223 l -6.768929,-8.466675 -1.697745,8.466675 z" />
      <path
         id="path328"
         style="font-style:italic;font-size:22.5778px;fill:#333333;stroke-width:0.264583"
         d="m 118.76016,37.041668 0.83785,-4.233338 -5.64445,-7.055562 0.57327,-2.822226 h 2.82222 l -0.28663,1.411113 4.51997,5.64445 6.76893,-5.64445 0.28663,-1.411113 h 2.82223 l -0.57327,2.822226 -8.46667,7.055562 -0.83785,4.233338 z" />
      <path
         id="path330"
         style="font-style:italic;font-size:22.5778px;fill:#333333;stroke-width:0.264583"
         d="m 131.46017,37.041668 0.57327,-2.822225 5.07118,-4.233338 -1.12448,-1.411112 v 0 l -2.271,-2.822225 0.57326,-2.822226 h 2.82222 l -0.28663,1.411113 4.51997,5.64445 -6.76893,5.64445 -0.28663,1.411113 z m 14.11113,0 0.28663,-1.411113 -4.51997,-5.64445 6.76893,-5.64445 0.28664,-1.411113 h 2.82222 l -0.57326,2.822226 -3.37345,2.822225 h -0.022 l -1.6757,1.411112 3.39549,4.233338 -0.57326,2.822225 z" />
    </g>
  </g>
</svg>
