<?xml version="1.0" encoding="iso-8859-1"?>
<!-- Generator: Adobe Illustrator 19.0.0, SVG Export Plug-In . SVG Version: 6.00 Build 0)  -->
<svg version="1.1" id="Capa_1" xmlns="http://www.w3.org/2000/svg" xmlns:xlink="http://www.w3.org/1999/xlink" x="0px" y="0px"
	 viewBox="0 0 469.333 469.333" style="enable-background:new 0 0 469.333 469.333;" xml:space="preserve">
<g>
	<g>
		<path d="M464.833,225.954l-256-181.333c-3.229-2.292-7.5-2.583-11.063-0.771c-3.542,1.833-5.771,5.5-5.771,9.479v96H21.333
			C9.563,149.329,0,158.892,0,170.663v128c0,11.771,9.563,21.333,21.333,21.333H192v96c0,3.979,2.229,7.646,5.771,9.479
			c1.542,0.792,3.229,1.188,4.896,1.188c2.167,0,4.333-0.667,6.167-1.958l256-181.333c2.813-2,4.5-5.25,4.5-8.708
			C469.333,231.204,467.646,227.954,464.833,225.954z"/>
	</g>
</g>
<g>
</g>
<g>
</g>
<g>
</g>
<g>
</g>
<g>
</g>
<g>
</g>
<g>
</g>
<g>
</g>
<g>
</g>
<g>
</g>
<g>
</g>
<g>
</g>
<g>
</g>
<g>
</g>
<g>
</g>
</svg>
