<?xml version="1.0" encoding="iso-8859-1"?>
<!-- Generator: Adobe Illustrator 19.0.0, SVG Export Plug-In . SVG Version: 6.00 Build 0)  -->
<svg version="1.1" id="Capa_1" xmlns="http://www.w3.org/2000/svg" xmlns:xlink="http://www.w3.org/1999/xlink" x="0px" y="0px"
	 viewBox="0 0 469.333 469.333" style="enable-background:new 0 0 469.333 469.333;" xml:space="preserve">
<g>
	<g>
		<path d="M458.667,213.333h-45.323l11.24-14.99c1.417-1.875,2.156-4.167,2.135-6.521l-0.24-21.302
			c-0.052-4.469-2.885-8.438-7.104-9.927c-4.177-1.5-8.917-0.208-11.771,3.24l-41.085,49.5h-80.349l64-64h44.496
			c2.865,0,5.615-1.156,7.625-3.208c2.01-2.052,3.104-4.823,3.042-7.688l-0.229-10.51c-0.125-5.792-4.854-10.427-10.635-10.438
			l-12.424-0.03l20.165-20.165c4.165-4.167,4.165-10.919,0-15.086l-15.086-15.085c-4.165-4.165-10.919-4.165-15.085,0
			l-20.115,20.115l-0.018-12.311c-0.01-5.781-4.615-10.5-10.396-10.656L330.938,64c-2.875-0.156-5.656,1.01-7.719,3.031
			c-2.052,2-3.219,4.76-3.219,7.635v44.496l-64,64v-80.305l49.552-41.014c3.448-2.854,4.74-7.552,3.26-11.76
			c-1.49-4.219-5.448-7.063-9.917-7.125l-21.417-0.292c-2.771-0.427-4.656,0.719-6.542,2.135L256,56.003V10.667
			C256,4.775,251.224,0,245.333,0H224c-5.891,0-10.667,4.775-10.667,10.667v45.336l-14.938-11.201
			c-1.875-1.406-4.25-1.969-6.521-2.135l-21.302,0.25c-4.469,0.052-8.438,2.885-9.927,7.104c-1.5,4.219-0.198,8.917,3.24,11.771
			l49.448,41.034v80.337l-64-64V74.667c0-5.896-4.771-10.667-10.667-10.667H128c-5.896,0-10.667,4.771-10.667,10.667v12.496
			L97.294,67.124c-4.165-4.165-10.919-4.165-15.085,0L67.124,82.208c-4.165,4.167-4.165,10.919,0,15.086l20.039,20.039H74.667
			C68.771,117.333,64,122.104,64,128v10.667c0,5.896,4.771,10.667,10.667,10.667h44.496l64,64h-80.298l-40.969-49.49
			c-2.865-3.448-7.573-4.74-11.76-3.26c-4.219,1.49-7.063,5.448-7.125,9.917l-0.292,21.406c-0.031,2.354,0.719,4.656,2.135,6.542
			l11.161,14.885H10.667C4.776,213.333,0,218.108,0,224v21.333C0,251.224,4.776,256,10.667,256h45.427l-11.24,14.99
			c-1.417,1.875-2.167,4.167-2.135,6.521l0.25,21.302c0.052,4.469,2.885,8.438,7.104,9.927c1.167,0.417,2.365,0.615,3.563,0.615
			c3.115,0,6.146-1.365,8.208-3.854l41.077-49.5h80.242l-64,64H74.667C68.771,320,64,324.771,64,330.667v10.667
			C64,347.219,68.771,352,74.667,352l12.49,0.006l-20.033,20.033c-4.165,4.165-4.165,10.919,0,15.085l15.086,15.085
			c4.165,4.167,10.919,4.167,15.085,0l20.249-20.249l0.072,12.624c0.031,5.802,4.708,10.521,10.521,10.604l10.385,0.146
			c0.042,0,0.094,0,0.146,0c2.802,0,5.49-1.104,7.49-3.073c2.031-2,3.177-4.74,3.177-7.594v-44.497l64-64v80.401l-49.438,40.919
			c-3.448,2.854-4.74,7.552-3.26,11.76c1.49,4.219,5.448,7.063,9.917,7.125l21.417,0.292c2.229-0.229,4.656-0.719,6.542-2.135
			l14.823-11.115v45.25c0,5.891,4.776,10.667,10.667,10.667h21.333c5.891,0,10.667-4.776,10.667-10.667v-45.422l15.052,11.286
			c1.844,1.385,4.094,2.135,6.396,2.135c0.042,0,0.083,0,0.125,0l21.302-0.25c4.469-0.052,8.438-2.885,9.927-7.104
			c1.5-4.219,0.198-8.917-3.24-11.771L256,366.413v-80.243l64,64v44.497c0,5.896,4.771,10.667,10.667,10.667h10.667
			c5.896,0,10.667-4.771,10.667-10.667v-12.497l20.039,20.039c4.165,4.167,10.919,4.167,15.085,0l15.086-15.085
			c4.165-4.165,4.165-10.919,0-15.085L382.171,352h12.496c5.896,0,10.667-4.771,10.667-10.667v-10.667
			c0-5.896-4.771-10.667-10.667-10.667h-44.496l-64-64h80.405l40.977,49.49c2.073,2.5,5.104,3.865,8.219,3.865
			c1.188,0,2.385-0.198,3.552-0.604c4.219-1.49,7.052-5.448,7.115-9.927l0.281-21.406c0.031-2.354-0.719-4.646-2.135-6.531
			L413.422,256h45.245c5.891,0,10.667-4.776,10.667-10.667V224C469.333,218.108,464.557,213.333,458.667,213.333z"/>
	</g>
</g>
<g>
</g>
<g>
</g>
<g>
</g>
<g>
</g>
<g>
</g>
<g>
</g>
<g>
</g>
<g>
</g>
<g>
</g>
<g>
</g>
<g>
</g>
<g>
</g>
<g>
</g>
<g>
</g>
<g>
</g>
</svg>
