<?xml version="1.0" encoding="iso-8859-1"?>
<!-- Generator: Adobe Illustrator 19.0.0, SVG Export Plug-In . SVG Version: 6.00 Build 0)  -->
<svg version="1.1" id="Capa_1" xmlns="http://www.w3.org/2000/svg" xmlns:xlink="http://www.w3.org/1999/xlink" x="0px" y="0px"
	 viewBox="0 0 512 512" style="enable-background:new 0 0 512 512;" xml:space="preserve">
<g>
	<g>
		<path d="M256,0C114.844,0,0,114.844,0,256s114.844,256,256,256s256-114.844,256-256S397.156,0,256,0z M178.052,431.521
			c-54.656-24.271-94.781-72.406-108.729-130.427c28.427-27.323,74.073-31,106.313-9.24c5.708,13.969,16.156,26.219,29.865,35.031
			c5.198,11.219,7.833,23.24,7.833,35.781C213.333,390.073,200.24,415.427,178.052,431.521z M191.26,213.323l-122.677,0.01
			C87.875,126.896,166.323,63.177,256,63.177c88.885,0,167.198,63.74,187.115,150.198H320.792C305.052,199.74,281.729,192,256,192
			C230.292,192,207,199.719,191.26,213.323z M333.948,431.521c-22.188-16.094-35.281-41.448-35.281-68.854
			c0-12.552,2.635-24.583,7.854-35.792c13.688-8.813,24.125-21.063,29.833-35.01c32.188-21.76,77.865-18.104,106.323,9.229
			C428.729,359.115,388.604,407.25,333.948,431.521z"/>
	</g>
</g>
<g>
</g>
<g>
</g>
<g>
</g>
<g>
</g>
<g>
</g>
<g>
</g>
<g>
</g>
<g>
</g>
<g>
</g>
<g>
</g>
<g>
</g>
<g>
</g>
<g>
</g>
<g>
</g>
<g>
</g>
</svg>
